<?xml version="1.0" encoding="utf-8"?>
<!-- Generator: Adobe Illustrator 16.0.0, SVG Export Plug-In . SVG Version: 6.00 Build 0)  -->
<!DOCTYPE svg PUBLIC "-//W3C//DTD SVG 1.1//EN" "http://www.w3.org/Graphics/SVG/1.1/DTD/svg11.dtd">
<svg version="1.1" id="Layer_1" xmlns="http://www.w3.org/2000/svg" xmlns:xlink="http://www.w3.org/1999/xlink" x="0px" y="0px"
	 width="199.49px" height="281.986px" viewBox="0 0 199.49 281.986" enable-background="new 0 0 199.49 281.986"
	 xml:space="preserve">
<g>
	<g>
		<g>
			<path fill="#C74E28" d="M33.962,175.675c-0.645-1.968-2.032-3.354-4.225-3.354c-2.967,0-4.774,2.773-4.774,8.225
				c-0.064,5.451,1.549,8.229,4.904,8.229c1.998,0,3.225-0.711,4.547-3.453l4.128,1.098c-1.387,4.031-4.418,6.096-8.675,6.096
				c-5.936,0-9.355-4.355-9.355-11.969c0-7.612,3.419-11.967,9.355-11.967c4.45,0,7.03,1.999,8.127,6.129L33.962,175.675z"/>
			<path fill="#C74E28" d="M46.381,168.869h5.547l6.612,23.322h-4.418l-1.291-5.031h-7.354l-1.387,5.031h-4.418L46.381,168.869z
				 M46.446,183.482h5.418l-2.613-10.129h-0.064L46.446,183.482z"/>
			<path fill="#C74E28" d="M61.573,192.191V168.9h4.645l9.161,15.873h0.063V168.9h4.193v23.291h-4.289l-9.516-16.58h-0.064v16.58
				H61.573z"/>
			<path fill="#C74E28" d="M89.377,168.869h5.549l6.613,23.322h-4.421l-1.29-5.031h-7.354l-1.388,5.031h-4.419L89.377,168.869z
				 M89.442,183.482h5.418l-2.612-10.129h-0.064L89.442,183.482z"/>
			<path fill="#C74E28" d="M104.474,168.9h7.708c6.16,0,10.419,3.42,10.45,11.645c-0.031,8.229-4.29,11.646-10.45,11.646h-7.708
				V168.9z M108.925,188.449h2.967c5.097,0,6.291-3.742,6.291-7.904c0-4.161-1.194-7.902-6.291-7.902h-2.967V188.449z"/>
			<path fill="#C74E28" d="M126.602,192.191V168.9h4.451v23.291H126.602z"/>
			<path fill="#C74E28" d="M141.342,168.869h5.548l6.611,23.322h-4.419l-1.291-5.031h-7.353l-1.389,5.031h-4.418L141.342,168.869z
				 M141.405,183.482h5.419l-2.612-10.129h-0.066L141.405,183.482z"/>
			<path fill="#C74E28" d="M156.534,192.191V168.9h4.644l9.16,15.873h0.064V168.9h4.193v23.291h-4.288l-9.517-16.58h-0.064v16.58
				H156.534z"/>
			<path fill="#C74E28" d="M22.35,225.852v-23.291h14.837v3.744H26.801v5.545h7.773v3.742h-7.773v10.26H22.35z"/>
			<path fill="#C74E28" d="M41.542,225.852v-23.291H56.96v3.744H45.994v5.545h7.966v3.742h-7.966v6.516h11.321v3.744H41.542z"/>
			<path fill="#C74E28" d="M62.315,225.852v-23.291h15.417v3.744H66.767v5.545h7.967v3.742h-7.967v6.516h11.321v3.744H62.315z"/>
			<path fill="#C74E28" d="M82.895,202.561h7.709c6.16,0,10.419,3.42,10.45,11.645c-0.031,8.225-4.29,11.646-10.45,11.646h-7.709
				V202.561z M87.345,222.107h2.969c5.096,0,6.289-3.74,6.289-7.902c0-4.16-1.193-7.9-6.289-7.9h-2.969V222.107z"/>
			<path fill="#C74E28" d="M131.147,202.529v3.742h-6.096v19.58h-4.451v-19.58h-6.097v-3.742H131.147z"/>
			<path fill="#C74E28" d="M135.569,225.852v-23.291h4.449v9.289h8.967v-9.289h4.451v23.291h-4.451v-10h-8.967v10H135.569z"/>
			<path fill="#C74E28" d="M159.921,225.852v-23.291h15.418v3.744h-10.967v5.545h7.967v3.742h-7.967v6.516h11.32v3.744H159.921z"/>
			<path fill="#C74E28" d="M33.946,242.993c-0.646-1.967-2.031-3.355-4.226-3.355c-2.966,0-4.773,2.775-4.773,8.229
				c-0.063,5.451,1.549,8.225,4.904,8.225c2,0,3.226-0.711,4.547-3.451l4.129,1.096c-1.388,4.033-4.419,6.098-8.676,6.098
				c-5.935,0-9.354-4.356-9.354-11.967c0-7.615,3.419-11.969,9.354-11.969c4.45,0,7.03,2,8.127,6.129L33.946,242.993z"/>
			<path fill="#C74E28" d="M41.945,259.509V236.22h4.452v9.291h8.966v-9.291h4.451v23.289h-4.451v-9.998h-8.966v9.998H41.945z"/>
			<path fill="#C74E28" d="M65.653,259.509V236.22h4.451v23.289H65.653z"/>
			<path fill="#C74E28" d="M75.781,259.509V236.22h4.45v19.549h10.13v3.74H75.781z"/>
			<path fill="#C74E28" d="M93.717,236.22h7.709c6.158,0,10.417,3.418,10.45,11.646c-0.033,8.225-4.292,11.643-10.45,11.643h-7.709
				V236.22z M98.167,255.769h2.967c5.098,0,6.291-3.742,6.291-7.902c0-4.164-1.193-7.906-6.291-7.906h-2.967V255.769z"/>
			<path fill="#C74E28" d="M115.229,259.509V236.22h9.291c5.29,0,7.418,3.062,7.449,6.902c0.033,2.872-1.417,5.194-4.257,6.001
				l5.127,10.386h-4.935l-4.385-9.483h-3.84v9.483H115.229z M119.681,246.412h3.29c3.484,0,4.548-1.096,4.548-3.29
				c0-2.192-1.32-3.29-3.771-3.29h-4.066V246.412z"/>
			<path fill="#C74E28" d="M136.938,259.509V236.22h15.418v3.74h-10.965v5.551h7.965v3.74h-7.965v6.518h11.32v3.74H136.938z"/>
			<path fill="#C74E28" d="M156.551,259.509V236.22h4.646l9.158,15.87h0.064v-15.87h4.192v23.289h-4.29l-9.514-16.581h-0.064v16.581
				H156.551z"/>
		</g>
	</g>
	<polygon fill="#C74E28" points="112.581,110.654 112.522,110.653 112.581,110.655 	"/>
	<path fill="#C74E28" d="M152.583,121.874c0.401,0.527,0.872,1.081,1.416,1.661c0.111,0.122,0.222,0.238,0.341,0.361
		c0.249,0.252,0.5,0.489,0.755,0.708c0.637,0.559,1.298,1.013,1.973,1.379c0.37,0.201,0.74,0.373,1.119,0.519
		c0.243,0.184,1.211,0.388,1.544,0.459c0.951,0.197,1.916,0.255,2.887,0.194c0.366-0.02,0.733-0.06,1.101-0.113
		c0.64-0.096,1.271-0.233,1.903-0.41c0.528-0.147,1.052-0.324,1.572-0.52c1.579-0.603,3.114-1.405,4.556-2.31
		c0.207-0.132,0.4-0.291,0.586-0.469c0.784-0.761,1.359-1.934,1.782-3.272c0.638-2.036,0.923-4.437,1.044-6.332
		c0.019-0.26,0.035-0.508,0.044-0.745c0-0.039,0.004-0.075,0.008-0.113c0.007-0.212,0.015-0.414,0.018-0.604
		c0.041-1.087,0.103-0.933-0.059-2.266c-0.164-1.382-3.396-8.563-8.045-10.063c-0.304-0.1-0.621-0.181-0.945-0.245
		c-0.271-0.052-0.546-0.096-0.835-0.126c-0.304-0.027-0.594-0.049-0.883-0.07c-0.439-0.032-0.866-0.056-1.278-0.068
		c-0.773-0.02-1.487-0.005-2.162,0.036c-0.282,0.018-0.555,0.039-0.82,0.067c-0.7,0.07-1.352,0.178-1.945,0.315
		c-0.293,0.067-0.583,0.137-0.852,0.222c-0.598,0.18-1.131,0.395-1.614,0.633c-0.699,0.347-1.297,0.748-1.793,1.184
		c-0.564,0.5-1.012,1.045-1.365,1.609c-0.249,0.407-0.45,0.818-0.619,1.232c-0.425,1.075-0.588,2.146-0.655,3.028
		c-0.128,1.693-0.341,3.145-0.522,4.437c-0.042,0.278-0.08,0.55-0.119,0.814c-0.003,0.038-0.011,0.072-0.015,0.111
		c-0.018,0.145-0.036,0.283-0.057,0.417c-0.335,2.615-0.354,4.654,1.098,7.092C151.98,121.029,152.257,121.443,152.583,121.874z"/>
	<path fill="#C74E28" d="M175.866,143.669c0.015-0.023-0.005-0.385-0.082-0.866c-0.057-0.481-0.247-1.6-0.278-1.845
		c-0.077-0.435-0.169-0.861-0.275-1.269c-0.009-0.043-0.018-0.083-0.03-0.124c-0.043-0.165-0.094-0.324-0.14-0.482
		c-0.104-0.36-0.22-0.708-0.354-1.037c-0.019-0.052-0.036-0.116-0.059-0.168c-1.456-3.572-5.022-5.466-8.961-6.264
		c-0.401-0.08-0.803-0.146-1.209-0.207c-0.747-0.11-1.493-0.18-2.238-0.219c-0.173-0.011-0.345-0.022-0.513-0.029
		c-0.321-0.011-0.631-0.014-0.938-0.016c-0.313-0.002-0.613,0.002-0.914,0.01c-0.397,0.011-0.793,0.03-1.163,0.062
		c-0.579,0.053-1.126,0.132-1.643,0.243c-0.341,0.072-0.671,0.167-0.991,0.27c-0.835,0.268-1.598,0.648-2.312,1.158
		c-0.405,0.284-0.792,0.614-1.171,0.988c-0.925,0.914-1.793,2.095-2.673,3.626c-0.326,0.568-0.609,1.159-0.871,1.769
		c-0.033,0.07-0.061,0.142-0.092,0.211c-0.01,0-0.025,0.048-0.031,0.074c-0.021,0.049-0.04,0.104-0.064,0.152
		c-0.084,0.206-0.163,0.422-0.236,0.635c-0.199,0.538-0.379,1.086-0.533,1.649c-0.032,0.122-0.065,0.25-0.095,0.373
		c-0.15,0.562-0.286,1.129-0.399,1.706c-0.022,0.124-0.044,0.253-0.066,0.38c-0.051,0.285-0.105,0.57-0.149,0.86
		c-0.019,0.106-0.033,0.209-0.048,0.321c-0.084,0.572-0.161,1.145-0.222,1.723c-0.013,0.125-0.024,0.252-0.035,0.376
		c-0.032,0.298-0.059,0.595-0.08,0.892c-0.01,0.106-0.017,0.217-0.024,0.322c-0.047,0.671-0.082,1.342-0.107,2.002
		c-0.004,0.131-0.01,0.263-0.015,0.395c-0.012,0.318-0.019,5.854-0.026,6.172l5.265-0.028l2.213-0.013l2.189-0.013h0.573
		l0.683-0.005l0,0l1.457-0.006h0.274c0-0.004,0-0.004,0-0.004l0.967-0.004l3.319-0.02l1.652-0.006l2.278-0.015l0.564-0.004
		l6.053-0.036v0.004l1.113-0.006l0,0l0.608-0.004C176.068,154.734,176.121,146.498,175.866,143.669z"/>
	<path fill="#C74E28" d="M53.358,59.861c0.289,0.387,0.617,0.749,0.979,1.074c1.795,2.22,4.24,3.537,9.055,3.472
		c5.311-0.07,8.48-2.513,10.186-5.918c0.232-0.464,0.439-0.946,0.621-1.447c0.408-1.128,0.682-2.331,0.844-3.566
		c0.186-1.432,0.223-2.908,0.14-4.361c-0.011-0.14-0.017-0.281-0.026-0.417c-0.077-1.021-0.171-2.013-0.287-2.968
		c-0.047-0.395-0.1-0.783-0.159-1.164c-0.242-1.612-0.573-3.1-1.036-4.421c-0.149-0.434-0.32-0.85-0.502-1.248l-0.002-0.002
		c-0.237-0.521-0.51-1.008-0.809-1.458c-0.144-0.213-0.292-0.424-0.45-0.624c-0.173-0.213-0.352-0.418-0.544-0.614
		c-0.158-0.16-0.323-0.312-0.494-0.457c-0.701-0.596-1.52-1.063-2.471-1.381c-0.611-0.205-1.276-0.348-2.005-0.427
		c-0.437-0.045-0.896-0.068-1.378-0.066c-2.487,0.013-4.594,0.364-6.352,0.999c-0.18,0.062-0.35,0.131-0.52,0.202
		c-0.984,0.4-1.852,0.894-2.608,1.469c-0.143,0.109-0.287,0.224-0.42,0.338c-0.541,0.457-1.019,0.959-1.439,1.501
		c-0.157,0.204-0.311,0.412-0.449,0.627c-0.298,0.448-0.563,0.923-0.796,1.419c-0.869,1.89-1.16,4.02-1.313,6.458
		c-0.028,0.892-0.161,1.758-0.156,2.799C50.803,53.11,51.238,57.022,53.358,59.861z"/>
	<path fill="#C74E28" d="M23.442,85.024c0.101,0.636,0.22,1.256,0.363,1.868c0.083,0.355,0.174,0.704,0.274,1.047
		c0.406,1.426,0.937,2.743,1.595,3.862c0.09,0.149,0.185,0.294,0.278,0.438c0.031,0.046,0.061,0.101,0.094,0.144
		c0.145,0.218,0.297,0.424,0.453,0.619c1.044,1.317,2.326,2.195,3.837,2.386c5.776,0.723,9.816-0.418,12.311-2.482
		c0.235-0.198,0.455-0.405,0.665-0.614c0.048-0.05,0.096-0.097,0.144-0.15c0.101-0.108,0.201-0.216,0.295-0.331
		c0.112-0.126,0.221-0.257,0.321-0.392c0.579-0.769,1.006-2,1.259-3.498c0.064-0.378,0.109-0.774,0.151-1.182
		c0.054-0.556,0.086-1.139,0.094-1.739c0.012-0.838-0.021-1.71-0.104-2.598c-0.086-0.922-0.225-1.857-0.42-2.786
		c-0.328-1.557-0.815-3.095-1.482-4.501c-0.37-0.78-0.796-1.524-1.279-2.205c-0.236-0.336-0.488-0.651-0.755-0.953
		c-0.499-0.57-1.046-1.084-1.648-1.523c-0.313-0.228-0.638-0.437-0.981-0.626c-1.012-0.554-2.151-0.923-3.433-1.045
		c-3.474-0.329-6.01-0.881-8.909,1.49c-0.089,0.071-0.176,0.136-0.266,0.216c-0.176,0.153-0.341,0.32-0.504,0.503
		c-0.281,0.32-0.542,0.688-0.779,1.089c-0.31,0.522-0.581,1.107-0.815,1.741c-0.364,0.989-0.638,2.094-0.817,3.274
		c-0.113,0.727-0.188,1.482-0.231,2.251c-0.088,1.561-0.031,3.186,0.159,4.776C23.353,84.414,23.396,84.721,23.442,85.024z"/>
	<path fill="#C74E28" d="M142.065,47.105c-0.026-0.371-0.056-0.743-0.092-1.121c-0.07-0.689-0.158-1.379-0.284-2.039
		c-0.082-0.445-0.188-0.874-0.31-1.285c-0.274-0.936-0.652-1.756-1.19-2.352c-0.458-0.509-1.037-1.025-1.715-1.523
		c-0.123-0.092-0.251-0.181-0.381-0.274c-0.355-0.243-0.736-0.483-1.136-0.713c-0.628-0.357-1.299-0.692-2.008-0.987
		c-0.264-0.108-0.531-0.21-0.802-0.309c-0.813-0.293-1.66-0.531-2.528-0.695c-0.159-0.03-0.318-0.056-0.481-0.083
		c-0.815-0.125-1.64-0.188-2.47-0.166c-0.394,0.01-0.785,0.04-1.178,0.091c-0.883,0.109-1.753,0.324-2.601,0.657
		c-0.217,0.086-0.433,0.177-0.648,0.277c-0.046,0.022-0.094,0.043-0.138,0.064c-0.174,0.085-0.324,0.185-0.485,0.277
		c-0.297,0.167-0.583,0.346-0.85,0.54c-0.15,0.104-0.297,0.21-0.435,0.324c-0.32,0.257-0.615,0.527-0.892,0.816
		c-0.09,0.092-0.177,0.19-0.261,0.288c-0.78,0.892-1.389,1.923-1.868,3.05c-0.146,0.344-0.278,0.692-0.403,1.05
		c-0.145,0.417-0.274,0.847-0.396,1.289c-0.055,0.207-0.113,0.415-0.165,0.625c-0.076,0.174-0.17,0.917-0.302,1.407
		c-0.171,0.9-0.308,1.83-0.431,2.775c-0.141,1.104-0.26,2.229-0.379,3.358c-0.05,0.486-0.101,0.975-0.156,1.463
		c-0.082,0.787-0.059,1.586,0.056,2.382c0.029,0.312,0.187,0.866,0.274,1.275c0.088,0.309,0.19,0.612,0.308,0.916
		c0.22,0.577,0.485,1.144,0.803,1.687c0.318,0.553,0.678,1.082,1.084,1.584c0.615,0.751,1.321,1.438,2.112,2.027
		c0.745,0.558,1.573,1.031,2.452,1.39c0.037,0.014,0.073,0.027,0.112,0.042c2.035,0.806,4.376,1.022,6.878,0.351
		c0.433-0.117,0.851-0.25,1.259-0.394c0.042-0.015,0.08-0.03,0.119-0.043c0.32-0.117,0.634-0.246,0.941-0.381
		c1.59-0.684,3.004-1.591,4.215-2.672c0.355-0.319,0.698-0.648,1.021-0.996c0.479-0.521,0.912-1.076,1.3-1.655
		c0.777-1.146,1.378-2.388,1.768-3.708c0.449-1.52,0.629-3.129,0.491-4.779C142.193,49.921,142.164,48.55,142.065,47.105z"/>
	<path fill="#C74E28" d="M35.307,111.664c-0.712-1.068-1.205-2.283-2.193-3.04c1.072,0.202,2.127,0.297,3.144-0.121
		c2.275-1.617,4.569-2.874,6.892-3.746c-0.001-0.007-0.005-0.011-0.005-0.021c-0.105-0.285-0.22-0.566-0.347-0.834
		c-0.346-0.727-0.786-1.398-1.339-2.006c-0.358-0.397-0.769-0.767-1.232-1.104c-0.486-0.35-1.025-0.668-1.637-0.947
		c-0.303-0.14-0.623-0.267-0.957-0.385c-1.52-0.537-3.389-0.864-5.695-0.931c-1.121-0.033-2.118,0.125-3.024,0.424
		c-0.498,0.161-0.965,0.368-1.402,0.616c-0.491,0.283-0.949,0.621-1.372,1c-0.268,0.244-0.521,0.502-0.761,0.778
		c-0.526,0.605-0.995,1.288-1.405,2.036c-0.191,0.353-0.374,0.72-0.545,1.101c-0.197,0.435-0.378,0.891-0.544,1.359
		c-0.229,0.632-0.431,1.292-0.608,1.968c-0.115,0.446-0.221,0.894-0.32,1.357c-0.191,0.472-0.382,1.926-0.36,1.958
		c-0.031,0.203-0.065,0.407-0.093,0.61c-0.091,0.633-0.167,1.273-0.232,1.914c-0.053,0.529-0.099,1.057-0.138,1.584
		c-0.06,0.829-0.105,1.647-0.137,2.449c-0.016,0.441-0.027,0.877-0.039,1.311c0,0.013,0,0.029-0.001,0.044
		c0.001,0.021,0,0.043,0,0.064c-0.033,1.459-0.029,2.838-0.021,4.069c0,0.035,0,0.071,0.001,0.106
		c0.005,0.355,0.007,0.714,0.012,1.074c0.007,0.553,0.013,1.105,0.02,1.664c0.003,0.244,0.004,0.491,0.012,0.736
		c0,0-0.03,0.094,0,0.268c0,0.003,0.004,0,0.004,0c0.004,0.391,0.012,0.792,0.018,1.187c0.009,0.498,0.015,0.998,0.024,1.499
		c0.005,0.448,0.013,0.888,0.021,1.343c0.021,1.263,0.042,2.545,0.059,3.848c0.009,0.745,0.019,1.498,0.027,2.26
		c0.004,0.479,0.008,0.96,0.011,1.444c0.003,0.115,0.003,0.226,0.005,0.344c-0.029,0.064,0.006,1.297,0.01,1.544
		c0.001,0.495,0,0.998,0,1.497c0,0.355,0.001,0.711,0,1.072c-0.003,0.705-0.008,1.415-0.015,2.134c0,0.163-0.002,0.331-0.002,0.493
		c-0.004,0.342-0.01,0.685-0.016,1.029c-0.008,0.77-0.024,1.553-0.041,2.344c-0.012,0.558-0.023,1.121-0.038,1.689
		c-0.061,2.403-0.149,4.891-0.281,7.51l2.001-0.01v0.001l0.699-0.001c0.756,0.053,1.025,0,1.655-0.016l5.035-0.025l0.65-0.002
		l8.556-0.049c0,0.003,0,0.003,0.002,0.003l1.113-0.005v-0.002l4.08-0.022c-0.005-0.312-0.014-0.619-0.022-0.931
		c0-0.131-0.001-0.258-0.006-0.389c-0.015-0.732-0.032-1.467-0.049-2.189c-0.004-0.129-0.007-0.258-0.01-0.387
		c-0.006-0.285-0.015-0.566-0.024-0.851c-0.004-0.122-0.006-0.247-0.008-0.372c-0.02-0.652-0.037-1.304-0.055-1.956
		c-0.005-0.124-0.009-0.261-0.014-0.385c-0.007-0.228-0.012-0.454-0.02-0.679c-0.002-0.127-0.007-0.25-0.011-0.373
		c-0.018-0.645-0.035-1.285-0.055-1.926c-0.004-0.133-0.007-0.265-0.01-0.4c-0.013-0.36-0.021-0.725-0.032-1.092
		c-0.008-0.212-0.011-0.428-0.015-0.641c-0.01-0.234-0.015-0.473-0.021-0.711c-0.018-0.674-0.032-1.349-0.049-2.025
		c-0.011-0.353-0.016-0.714-0.022-1.065c-0.015-0.616-0.021-1.231-0.032-1.849c-0.003-0.206-0.008-0.411-0.009-0.618
		c0-0.009-0.002-0.018-0.002-0.033c0.071-0.072,0.062-0.25-0.004-0.27c-0.013-0.921-0.015-1.854-0.019-2.783
		c-0.002-0.801-0.002-1.604,0.004-2.412c0.007-0.724,0.015-1.453,0.028-2.183c0.002-0.271,0.01-0.536,0.013-0.81
		c0.011-0.43,0.011-0.546,0.011-0.892c0.011-0.856,0.01-1.669,0-2.453C39.534,123.513,36.889,118.011,35.307,111.664z"/>
	<path fill="#CFCA26" d="M44.082,125.53c-0.019-0.483-0.032-0.958-0.053-1.425c-0.015-0.357-0.029-0.714-0.041-1.065
		c-0.05-1.14-0.103-2.245-0.139-3.352c-0.01-0.236-0.015-0.471-0.02-0.707c-0.002-0.033-0.002-0.073-0.002-0.107
		c-0.004-0.167-0.009-0.333-0.009-0.498c-0.019-0.801-0.022-1.619-0.008-2.458c0.008-0.353,0.017-0.708,0.029-1.069
		c0.01-0.241,0.019-0.48,0.028-0.725c0.018-0.336,0.036-0.673,0.048-1.015c0.02-0.416,0.034-0.832,0.046-1.25
		c0.032-1.168,0.026-2.344-0.072-3.483c-0.046-0.536-0.109-1.065-0.201-1.583c-0.126-0.702-0.305-1.383-0.54-2.035
		c-2.323,0.872-4.617,2.128-6.892,3.746c-1.017,0.418-2.072,0.323-3.144,0.121c0.988,0.756,1.481,1.972,2.193,3.04
		c1.582,6.347,4.227,11.85,8.814,15.797c-0.001-0.136-0.001-0.275-0.004-0.405C44.107,126.532,44.094,126.028,44.082,125.53z"/>
	<path fill="#C74E28" d="M62.814,106.998c7.076,4.308,10.354,10.375,12.073,17.168l0.527,0.453c0.036-1.649,0.069-3.306,0.096-4.973
		c0.003-0.288,0.003-0.577,0.007-0.865c0.002-0.036,0.002-0.073,0.002-0.11c0.007-0.177,0.007-0.352,0.009-0.531
		c0.015-1.383,0.026-2.774,0.031-4.179c0-0.531-0.003-1.07-0.005-1.606c-0.001-0.652-0.001-1.306-0.005-1.966
		c-0.006-0.704-0.005-1.409-0.005-2.118c-0.006-1.978-0.006-3.956-0.006-5.938c0-1.228-0.004-2.457-0.011-3.688
		c-0.002-0.421-0.007-0.84-0.011-1.259c0-0.277,0-0.552-0.004-0.83c-0.011-1.181-0.038-2.359-0.067-3.539
		c-0.006-0.309-0.014-0.618-0.022-0.927c0-0.05,0-0.099-0.002-0.147c-0.004-0.122-0.006-0.238-0.007-0.358
		c-0.007-0.209-0.008-0.418-0.018-0.628c-0.038-1.174,0.003-2.896-0.055-4.871c-0.014-0.393-0.032-0.799-0.05-1.209
		c-0.042-0.73-0.095-1.485-0.175-2.255c-0.146-1.371-0.372-2.776-0.73-4.145c-0.222-0.856-0.493-1.7-0.829-2.509
		c-0.153-0.372-0.324-0.73-0.506-1.084c-0.882-1.728-2.105-3.241-3.792-4.342v-0.012c0,0.003,0,0.004,0,0.01
		c-1.477-0.963-3.312-1.604-5.589-1.793c0,0-0.026-0.043-0.037-0.006c-0.474-0.037-0.962-0.061-1.476-0.059
		c-0.912,0.006-1.746,0.071-2.529,0.181c0,0-0.004-0.026-0.004,0c-0.128,0.017-0.26,0.032-0.383,0.053
		c-2.197,0.353-3.891,1.094-5.202,2.109c-0.005-0.019-0.002,0.003-0.002,0.003c-1.107,0.86-1.941,1.912-2.564,3.095
		c-0.127,0.018-0.013,0.023-0.013,0.023c-0.52,0.995-0.902,2.074-1.17,3.203c-0.823,3.475-0.657,7.379-0.687,10.491h-0.029
		c0.008,0.001,0.022,0,0.029,0c0,0.404-0.007,0.796-0.021,1.171c-0.032,0.933-0.044,1.881-0.051,2.834
		c0,0.081-0.002,0.158-0.002,0.237c0,0.05-0.001,0.1-0.001,0.147c0,0.253-0.004,0.505-0.004,0.757c0,1.222,0.019,2.457,0.046,3.708
		c0.027,1.299,0.066,2.613,0.111,3.934c-0.046,0.027,0.002,0.083,0.002,0.083c0.029,0.878,0.062,1.764,0.092,2.65
		C54.034,103.157,58.379,104.307,62.814,106.998z"/>
	<path fill="#CFCA26" d="M75.378,126.203c0.009-0.402,0.018-0.812,0.029-1.215c0.001-0.122,0.001-0.249,0.008-0.368l-0.527-0.453
		c-1.719-6.794-4.997-12.861-12.073-17.168c-4.436-2.691-8.78-3.841-13.04-3.639c0.155,4.534,0.32,9.162,0.269,13.759
		c-0.048,0.024,0,0.074,0,0.074c-0.005,0.453-0.005,0.905-0.017,1.354c-0.002,0.088-0.003,0.173-0.005,0.262
		c-0.005,0.037-0.005,0.073-0.005,0.108c-0.006,0.236-0.011,0.47-0.021,0.705c-0.005,0.204-0.007,0.412-0.015,0.618
		c0,0.043-0.003,0.086-0.006,0.128l-0.072,1.143c0.009,0-0.158,3.939-0.225,5.754c0,0-0.05,0.025-0.001,0.041
		c-0.037,1.12-0.065,2.298-0.073,3.697c5.855,2.96,12.56,4.45,24.203-2.68l1.479,1.266c0.012-0.433,0.025-0.869,0.039-1.308
		C75.34,127.589,75.361,126.898,75.378,126.203z"/>
	<path fill="#C74E28" d="M75.129,134.98c0.001-0.148,0.006-0.298,0.011-0.447c0.052-1.646,0.1-3.292,0.146-4.944l-1.479-1.266
		c-11.644,7.13-18.348,5.64-24.203,2.68c0,0.723,0,1.5,0.008,2.366c0.005,0.421,0.006,0.896,0.014,1.415
		c0.011,2.458,0.011,5.931,0.015,9.591c0,0.378,0,0.75,0,1.129c0,0.205,0,0.41,0,0.613c0,0.398,0,0.793,0.002,1.186
		c0.001,0.469-0.047,1.008,0,1.318c0,0.381,0.004,0.757,0.004,1.137c0.002,0.635,0.003,1.268,0.003,1.887
		c0.003,0.578,0.007,1.157,0.01,1.714c0.003,0.734,0.007,1.447,0.015,2.125c0.002,0.407,0.006,0.804,0.013,1.19
		c-0.058,0.496,0.005,1.401,0.006,1.403h0.218l0.682-0.004c0,0,0-0.001-0.002-0.003l16.318-0.088v0.003l1.202-0.007l0,0l6.571-0.039
		c-0.005-0.561-0.005-1.119,0-1.68c0.002-0.449,0.023-2.667,0.023-3.418c0,0,0.035-2.762,0.044-3.288
		c0.088-0.769,0.053-2.684,0.067-3.421c0.009-0.256,0.013-0.512,0.018-0.765c0.006-0.19,0.011-0.383,0.011-0.575
		c0.053-2.068,0.109-4.126,0.174-6.179c0-0.046,0-0.097,0.003-0.145l0.023-0.01c-0.007,0.002-0.018,0.005-0.023,0.005
		c0.015-0.484,0.027-0.971,0.044-1.452c0.017-0.586,0.034-1.174,0.054-1.76C75.12,135.252,75.12,135.252,75.129,134.98z"/>
	<path fill="#C74E28" d="M83.469,123.798c-0.872-1.159-1.651-2.276-2.354-3.358c0.008,0.299,0.013,0.596,0.021,0.894
		c0.008,0.419,0.017,0.839,0.024,1.258c0.009,0.488,0.016,0.979,0.026,1.467c0.01,0.545,0.019,1.089,0.029,1.633
		c0.023,1.321,0.047,2.641,0.064,3.956l1.979,1.695L83.469,123.798z"/>
	<path fill="#C74E28" d="M87.297,124.949l-0.266,9.626l0.16,0.394l0.069,0.197l8.285,12.71l6.598-8.795
		c-2.043-10.508,0.822-14.816,5.162-18.749c0-0.207,0-0.418,0-0.625c0-0.37,0-0.74,0-1.104c0-0.04,0-0.074,0-0.112
		c0-0.123,0-0.246,0-0.371c0-0.907-0.004-1.805-0.008-2.693c-0.011-1.125,0.013-2.613,0.055-4.334
		c0.019-0.601,0.029-1.228,0.054-1.879c0.017-0.53,0.027-1.08,0.05-1.639c-0.165,0.37-0.334,0.74-0.514,1.112
		C102.546,117.773,95.439,122.244,87.297,124.949z"/>
	<path fill="#C74E28" d="M97.791,151.318l-0.219,0.295l-0.118,0.155l1.074,6.036l8.485-0.049c-0.003-0.736,0-1.471,0-2.216
		c0-0.185,0-0.376,0-0.561c0.002-0.937,0.006-1.87,0.01-2.819c0.002-0.352,0.007-0.707,0.007-1.062
		c0.012-1.747,0.027-3.51,0.044-5.289c0-0.207,0.004-0.416,0.008-0.623c0.002-0.259,0.005-0.514,0.007-0.773
		c0.008-0.645,0.012-1.297,0.022-1.943c-0.775-0.165-1.546-0.333-2.309-0.5L97.791,151.318z"/>
	<path fill="#C74E28" d="M83.735,136.832l-2.389-2.047c0.002,0.594,0.008,1.192,0.014,1.779c0.007,0.557,0.01,1.113,0.015,1.665
		c0.005,0.617,0.006,1.228,0.009,1.836c0,0.525,0.002,1.045,0.005,1.562c0.002,1.018,0.002,2.019-0.003,3.004
		c0,0.205,0,0.412,0,0.614c-0.002,0.023,0,0.049,0,0.074c-0.002,0.072-0.002,0.14-0.002,0.209c0,0.088,0,0.178,0,0.264
		c0,0.033,0,0.066,0,0.1c0,0.055-0.003,0.105-0.003,0.162c0,0.108-0.006,0.676-0.006,0.744c-0.021,0.027,0,0.119,0,0.119
		c0,0.103-0.001,0.217-0.003,0.322c0,0.019,0,0.035,0,0.051c0,0.07-0.002,0.142-0.002,0.209c0,0.1-0.003,0.195-0.003,0.286
		c0,0.095-0.001,0.194-0.001,0.29c0,0.082,0,0.174-0.001,0.26c-0.029,0.34-0.048,3.418-0.077,4.726c0,0.007,0,0.007,0,0.009v0.01
		c-0.005,0.069-0.008,0.135-0.009,0.205c0,0.055-0.001,0.107-0.004,0.158c0,0-0.005,0.215-0.005,0.241
		c-0.002,0.011-0.008,0.245-0.009,0.352c-0.005,0.101-0.007,0.204-0.011,0.306c-0.004,0.138-0.006,0.282-0.013,0.424
		c0,0.076-0.004,0.16-0.005,0.234c-0.002,0.011-0.002,0.014-0.002,0.025c-0.003,0.129-0.008,0.249-0.013,0.377
		c-0.003,0.061-0.004,0.121-0.009,0.184c-0.006,0.193-0.011,0.391-0.02,0.584c-0.005,0.148-0.012,0.311-0.018,0.458
		c-0.009,0.284-0.051,1.27-0.051,1.27l0.745-0.003c0,0,0,0,0.001-0.004l1.447-0.008h0.305l0.623-0.004h0.345l0.785-0.009h0.322
		l0.564-0.002l0.31-0.003l0.782-0.002l0.326-0.002l0.542-0.004h0.322l0.784-0.008h0.325l0.519-0.004h0.35l4.093-0.021l-1.063-5.945
		L83.735,136.832z"/>
	<path fill="#C74E28" d="M98.493,77.346c1.166-0.947,2.515-1.655,3.28-2.883c-0.11,1.265-0.11,2.492,0.487,3.63
		c2.63,3.038,4.627,6.173,5.928,9.42c0.049-1.54,0.084-2.889,0.093-3.943c0.006-0.432,0.006-0.817,0.006-1.146
		c-0.006-0.473-0.007-0.993-0.019-1.542c0.062-0.248-0.08-3.143-0.212-4.465c-0.138-1.615-0.368-3.271-0.738-4.813
		c-0.475-1.981-1.186-3.771-2.261-5.016c-0.295-0.344-0.584-0.656-0.866-0.952c-0.092-0.1-0.184-0.202-0.274-0.292
		c-0.015-0.017-0.028-0.031-0.044-0.041c-0.123-0.129-0.246-0.241-0.37-0.355c-0.015-0.083-0.056-0.056-0.056-0.056
		c-0.065-0.061-0.132-0.13-0.197-0.188c-2.184-2-4.249-2.672-8.207-2.702c-4.157-0.031-7.146,0.968-9.294,2.636
		c-0.312,0.239-0.602,0.498-0.876,0.764c-0.015,0.015-0.027,0.028-0.043,0.045c-0.414,0.407-0.791,0.844-1.136,1.301
		c-0.454,0.613-0.843,1.273-1.182,1.963c-0.114,0.227-0.221,0.455-0.318,0.69c-0.067,0.153-0.138,0.306-0.201,0.46
		c-0.037,0.095-0.066,0.199-0.1,0.294c-0.034,0.09-0.062,0.179-0.094,0.269c-0.06,0.163-0.119,0.326-0.17,0.491
		c-0.03,0.087-0.062,0.167-0.088,0.254c-0.003,0.005-0.008,0.009-0.008,0.015c-0.065,0.22-0.122,0.44-0.183,0.664
		c-0.029,0.1-0.058,0.198-0.083,0.297c-0.021,0.094-0.045,0.185-0.065,0.276c-0.024,0.093-0.042,0.188-0.064,0.283
		c-0.046,0.204-0.095,0.408-0.137,0.613c-0.01,0.046-0.017,0.095-0.025,0.145c-0.021,0.112-0.041,0.226-0.063,0.341
		c-0.007,0.044-0.02,0.094-0.026,0.138c-0.012,0.082-0.031,0.161-0.043,0.241c-0.005,0.03-0.011,0.061-0.015,0.091
		c-0.037,0.233-0.069,0.473-0.102,0.708c-0.013,0.088-0.027,0.176-0.041,0.266c-0.016,0.138-0.032,0.282-0.05,0.421
		c-0.011,0.096-0.021,0.189-0.029,0.28c-0.023,0.223-0.05,0.442-0.071,0.667c-0.008,0.096-0.016,0.19-0.025,0.285
		c-0.008,0.108-0.014,0.212-0.022,0.316c-0.012,0.115-0.021,0.224-0.025,0.335c-0.031,0.43-0.057,0.861-0.078,1.292
		c-0.022,0.474-0.035,0.942-0.043,1.41c-0.038,1.479-0.024,2.935-0.015,4.315c0,0.23,0.003,0.471,0.005,0.719
		c0.003,0.414,0.011,0.849,0.015,1.298c0.009,0.527,0.016,1.073,0.03,1.646c0.004,0.393,0.011,0.8,0.02,1.214
		c0.009,0.316,0.013,0.651,0.02,0.98C84.46,84.02,90.86,80.04,98.493,77.346z"/>
	<path fill="#CFCA26" d="M107.146,139.352c0.002-0.124,0.002-0.245,0.002-0.368c0.004-0.137,0.006-0.27,0.006-0.408
		c0.002-0.125,0.004-0.249,0.006-0.375c0.003-0.141,0.003-0.283,0.003-0.424c0.004-0.249,0.008-0.494,0.01-0.744
		c0-0.035,0-0.075,0.002-0.117c0-0.077,0-0.159,0.003-0.24c0-0.037,0-0.074,0-0.112c0.008-0.005,0.015-0.016,0.024-0.02
		l-0.024-0.019c0.002-0.12,0.004-0.238,0.004-0.358c0-0.066,0.004-0.133,0.004-0.197c0-0.132,0.004-0.262,0.004-0.389
		c0-0.011,0-0.022,0-0.035c0.003-0.232,0.007-0.466,0.007-0.702c0.004-0.06,0.004-0.121,0.004-0.185
		c0-0.085,0.002-0.176,0.002-0.261c0.002-0.091,0.005-0.181,0.005-0.269c0-0.096,0-0.19,0.004-0.288c0-0.09,0-0.179,0-0.269
		c0.002-0.041,0.002-0.081,0.002-0.122c0-0.049,0-0.091,0.002-0.135c0-0.041,0-0.084,0-0.123c0.004-0.097,0.004-0.192,0.004-0.282
		c0-0.097,0-0.192,0-0.286c0.003-0.094,0.007-0.185,0.007-0.278c0-0.083,0-0.168,0.004-0.257c0-0.036,0-0.072,0-0.113
		c0-0.086,0-0.169,0.004-0.253c0-0.092,0-0.181,0-0.271c0.003-0.089,0.003-0.177,0.003-0.264c0-0.092,0.004-0.187,0.006-0.277
		c0-0.088,0-0.179,0-0.268c0-0.049,0-0.095,0.004-0.142c0-0.246,0.004-0.495,0.005-0.739c0.004-0.338,0.004-0.676,0.01-1.013
		c0-0.045,0-0.087,0.002-0.13c0-0.087,0-0.175,0-0.262l0.015-0.011c-0.008-0.004-0.008-0.006-0.015-0.007
		c0.002-0.031,0.002-0.06,0.002-0.089c0-0.083,0.005-0.173,0.005-0.258c0-0.035,0-0.074,0-0.113c0-0.016,0-0.033,0-0.049
		c0-0.011,0-0.024,0-0.038c0-0.109,0-0.224,0-0.333v-0.003v0c0.006-0.303,0.008-0.605,0.011-0.908c0-0.062,0-0.13,0-0.194
		c0-0.279,0.004-0.555,0.004-0.834c0.002-0.159,0.004-0.32,0.004-0.481c0.011-1.589,0.015-3.161,0.019-4.708
		c-4.34,3.933-7.205,8.241-5.162,18.749l-6.598,8.795l-8.285-12.71l-0.069-0.197l-0.16-0.394l0.266-9.626
		c8.143-2.705,15.249-7.175,19.646-16.263c0.18-0.372,0.349-0.742,0.514-1.112c0.029-0.91,0.062-1.85,0.095-2.814
		c0.046-0.314,0.059-0.607,0.025-0.681c0.044-1.187,0.088-2.4,0.136-3.619c0.004-0.148,0.011-0.294,0.019-0.439
		c0.007-0.301,0.021-0.602,0.034-0.901c0-0.036,0-0.066,0.002-0.101c0.012-0.332,0.024-0.657,0.037-0.987
		c0.006-0.099,0.007-0.199,0.013-0.298c0.002-0.048,0.002-0.093,0.006-0.142c0.003-0.097,0.007-0.199,0.011-0.295
		c0.007-0.175,0.011-0.351,0.021-0.524c0-0.083,0.006-0.162,0.006-0.246c0-0.028,0.006-0.058,0.006-0.084
		c0.002-0.027,0.002-0.049,0.003-0.075c0-0.054,0.004-0.106,0.004-0.163c0.006-0.01,0.011-0.023,0.015-0.033
		c0.011-0.035-0.004-0.161-0.004-0.161c0-0.077,0.008-0.153,0.008-0.229c0.007-0.238,0.019-0.479,0.027-0.716
		c0.004-0.087,0.006-0.173,0.006-0.262c0.003-0.036,0.007-0.07,0.007-0.11c0.004-0.086,0.011-0.172,0.011-0.26
		c0.008-0.234,0.019-0.461,0.029-0.693c0-0.086,0.004-0.176,0.006-0.265c0.002-0.035,0.006-0.071,0.006-0.108
		c0-0.062,0.005-0.124,0.007-0.186c0.004-0.025,0.004-0.054,0.008-0.078c0-0.063,0.002-0.127,0.003-0.19c0-0.02,0-0.041,0-0.061
		c0-0.003,0-0.007,0-0.007c0.004-0.09,0.012-0.177,0.012-0.267c0.003-0.079,0.007-0.154,0.007-0.234
		c0.008-0.092,0.008-0.185,0.011-0.278l0.016-0.004c-0.004-0.013-0.01-0.021-0.012-0.032c0-0.029,0.002-0.06,0.002-0.085
		c0-0.016,0-0.031,0-0.043c0.002-0.048,0.006-0.099,0.01-0.145c0-0.034,0-0.064,0-0.095c0.003-0.082,0.009-0.163,0.011-0.244
		c0-0.027,0-0.054,0-0.082c0.011-0.212,0.017-0.417,0.027-0.628c0.002-0.101,0.005-0.206,0.009-0.305
		c0.004-0.096,0.008-0.189,0.01-0.288c0.005-0.122,0.009-0.237,0.013-0.357c0.029-0.787,0.051-1.535,0.073-2.248
		c-1.301-3.247-3.298-6.382-5.928-9.42c-0.598-1.138-0.598-2.366-0.487-3.63c-0.766,1.228-2.114,1.936-3.28,2.883
		C90.86,80.04,84.46,84.02,80.416,90.424c0.005,0.286,0.01,0.564,0.018,0.863c0.003,0.204,0.008,0.41,0.014,0.617
		c0.001,0.049,0.001,0.098,0.001,0.147c0.003,0.119,0.006,0.236,0.008,0.354c0.019,0.875,0.038,1.787,0.059,2.722
		c0.011,0.379,0.021,0.759,0.03,1.147c0,0.08,0.006,0.161,0.006,0.245c0.007,0.36,0.016,0.722,0.026,1.09
		c0.013,0.551,0.026,1.112,0.038,1.681c0.071,2.91,0.153,6.023,0.231,9.255c0.002,0.185,0.006,0.369,0.012,0.554
		c0,0.052,0.003,0.101,0.003,0.151c0.003,0.102,0.007,0.202,0.01,0.304c0.004,0.303,0.013,0.609,0.02,0.914
		c0.003,0.09,0.006,0.185,0.009,0.272c0,0.038,0,0.069,0.002,0.102c-0.002,0.008-0.005,0.015-0.009,0.021l0.009,0.002
		c0.002,0.093,0.005,0.184,0.007,0.276c0,0.003,0,0.006,0,0.011c0.007,0.242,0.01,0.487,0.017,0.731c0,0.003,0,0.007,0,0.01
		c0,0.058,0.005,0.116,0.008,0.172c0,0.025,0,0.054,0.001,0.079c0,0.04,0.002,0.074,0.002,0.111c0,0.025,0,0.049,0.001,0.072
		c0.002,0.063,0.002,0.125,0.003,0.19c0,0.02,0,0.035,0.003,0.054c0,0.003,0,0.011,0,0.019c0.006,0.207,0.01,0.413,0.015,0.624
		c0.003,0.084,0.007,0.171,0.007,0.259c0.002,0.038,0.002,0.073,0.002,0.109c0.002,0.088,0.005,0.176,0.006,0.263
		c0,0.007,0,0.013,0,0.021c0.003,0.094,0.007,0.188,0.007,0.286c0.003,0.141,0.007,0.285,0.013,0.429
		c0.001,0.09,0.001,0.182,0.003,0.272c0.002,0.042,0.002,0.08,0.003,0.121c0,0.077,0.002,0.151,0.007,0.23
		c0,0.015,0,0.03,0.002,0.047c0,0.069,0,0.135,0.002,0.202c0.005,0.229,0.013,0.463,0.017,0.694c0.004,0.1,0.004,0.203,0.005,0.301
		c0.002,0.05,0.002,0.099,0.006,0.148c0,0.138,0.004,0.277,0.009,0.416c0.007,0.25,0.01,0.501,0.016,0.755
		c0,0.026,0.001,0.053,0.001,0.077c0.005,0.231,0.011,0.463,0.015,0.692c0.002,0.033,0.002,0.062,0.002,0.093
		c0.002,0.036,0.002,0.073,0.002,0.111c0.002,0.047,0.002,0.093,0.004,0.139c0.01,0.518,0.022,1.038,0.031,1.559
		c0.703,1.083,1.482,2.2,2.354,3.358l-0.211,7.544l-1.979-1.695c0.026,1.729,0.049,3.443,0.067,5.138l2.389,2.047l9.813,15.047
		l1.063,5.945l2.127-0.011l0,0l1.725-0.009l0,0h0.064l-1.074-6.036l0.118-0.155l0.219-0.295l7.012-9.35
		c0.763,0.168,1.533,0.335,2.309,0.5c0.011-0.829,0.019-1.66,0.027-2.492C107.141,139.768,107.143,139.56,107.146,139.352z"/>
	<path fill="#C74E28" d="M141.935,99.675c0.002-0.534,0.01-1.072,0.01-1.609c0-0.329,0.005-0.66,0.005-0.988
		c0-0.302-0.002-0.607-0.002-0.914c0-0.082,0-0.162,0-0.244c0-1.042,0-2.089-0.007-3.131c-0.004-0.119-0.004-0.241-0.004-0.356
		c0-0.245,0-0.486,0-0.734c0-0.048,0-0.1,0-0.147c0-0.174-0.002-0.347,0-0.522c0.004-1.292,0.011-2.615-0.015-3.941
		c-0.004-0.381-0.015-0.76-0.027-1.143c-0.031-0.891-0.079-1.783-0.159-2.664c-0.053-0.569-0.117-1.133-0.198-1.692
		c-0.128-0.889-0.297-1.765-0.515-2.616c-0.178-0.689-0.396-1.363-0.652-2.017h0.006c0.004-0.03-0.015-0.053-0.033-0.075
		c-0.283-0.721-0.619-1.413-1.011-2.072c-0.438-0.734-0.949-1.432-1.55-2.076c-0.23-0.249-0.469-0.488-0.718-0.719
		c-0.616-0.558-1.305-1.067-2.079-1.529c-0.306-0.184-0.625-0.362-0.962-0.528c-0.983-0.489-2.081-0.912-3.323-1.246
		c-3.172-0.853-6.056-0.588-8.524,0.695c-0.334,0.174-0.656,0.37-0.977,0.583c-0.485,0.319-0.958,0.687-1.407,1.093
		c-0.185,0.167-0.362,0.352-0.54,0.534l0.004-0.085c-0.015,0.039-0.025,0.08-0.04,0.119c-0.088,0.086-0.176,0.165-0.263,0.255
		c-0.316,0.345-0.619,0.715-0.917,1.106c-0.393,0.521-0.768,1.082-1.119,1.685c-1.09,1.863-1.982,4.108-2.629,6.712
		c-0.128,0.533-0.253,1.083-0.362,1.642c-0.125,0.615-0.396,2.321-0.426,2.527c-0.051,0.388-0.101,0.776-0.149,1.177
		c-0.144,1.324-0.238,2.717-0.29,4.166c-0.004,0.112-0.009,0.216-0.015,0.33c-0.004,0.151-0.009,0.304-0.009,0.454
		c-0.004,0.052-0.004,0.1-0.004,0.151c-0.006,0.108-0.009,0.216-0.009,0.325c-0.029,1.079-0.059,2.185-0.088,3.315
		c-0.012,0.271-0.015,0.547-0.022,0.826c-0.005,0.211-0.013,0.424-0.019,0.636c-0.051,2.096-0.153,6.55-0.153,6.55
		c-0.015,0.552-0.04,1.725-0.04,1.725c-0.033,1.432-0.066,2.876-0.1,4.34c-0.007,0.346-0.015,0.695-0.021,1.045
		c-0.019,0.008,0,0.036,0,0.036v0.001c0,0-0.019,0.034,0,0.052c-0.01,0.252-0.015,0.506-0.019,0.761
		c-0.035,1.543-0.065,3.097-0.103,4.651c5.62-3.581,13.969-3.246,20.065-2.553l2.923-0.68l-1.007,2.82
		c-3.198,8.868-3.688,20.67-11.604,25.791c-3.16,2.046-6.999,2.253-10.939,1.786c-0.009,0.366-0.017,0.739-0.025,1.098
		c-0.006,0.249-0.01,0.502-0.017,0.751c-0.002,0.112-0.004,0.224-0.006,0.331c-0.021,0.021-0.003,0.123-0.003,0.123
		c-0.004,0.088-0.004,0.182-0.006,0.268c-0.017,0.846-0.061,2.627-0.061,2.627c-0.009,0.469-0.017,0.941-0.031,1.396
		c-0.015,0.733-0.033,1.44-0.051,2.128c-0.004,0.058-0.008,0.112-0.008,0.173c0,0-0.011,0.004,0,0.011
		c-0.004,0.264-0.009,0.527-0.017,0.788c-0.009,0.271-0.011,0.536-0.017,0.8c0,0-0.021,0.805-0.036,1.193
		c-0.015,0.678-0.033,1.322-0.052,1.941c0.022,0.312,0.015,0.571-0.02,0.795l15.002-0.076c0,0,0,0-0.002,0l1.031-0.008h0.004
		l12.996-0.07c0-0.39-0.005-0.783-0.004-1.176c0.035-1.069,0.16-4.824,0.136-5.41c-0.003-0.09-0.029-4.705-0.02-5.178
		c0.009-0.274,0.015-0.541,0.017-0.811c0.003-0.16,0.007-0.324,0.011-0.49c0.019-0.756,0.034-1.514,0.051-2.274
		c0.015-0.36,0.022-0.722,0.031-1.079c0.013-0.507,0.024-1.009,0.038-1.512c0.008-0.308,0.017-0.612,0.022-0.919
		c0.004-0.065,0.006-0.128,0.008-0.192c0.073-2.591,0.157-5.183,0.243-7.771c0.035-1.079,0.069-2.158,0.111-3.235
		c0.019-0.64,0.044-1.281,0.062-1.918c0.022-0.596,0.042-1.192,0.064-1.789c0.009-0.363,0.021-0.723,0.035-1.083
		c0.042-1.23,0.08-2.455,0.118-3.682c0.006-0.211,0.017-0.428,0.024-0.642c0-0.037,0.004-0.074,0.004-0.11
		c0.003-0.209,0.007-0.415,0.018-0.624c0.006-0.2,0.013-0.4,0.017-0.599h0.019c-0.006-0.004-0.011-0.004-0.019-0.004
		c0.021-0.663,0.042-1.324,0.061-1.986c0.011-0.376,0.022-0.754,0.035-1.132c0.023-0.92,0.049-1.84,0.071-2.763
		c0.015-0.54,0.029-1.082,0.042-1.625C141.853,106.424,141.944,99.701,141.935,99.675z"/>
	<path fill="#CFCA26" d="M122.837,141.499c7.917-5.121,8.406-16.923,11.604-25.791l1.007-2.82l-2.923,0.68
		c-6.097-0.693-14.445-1.028-20.065,2.553c-0.002,0.15-0.008,0.3-0.008,0.447c-0.007,0.367-0.016,0.728-0.021,1.096
		c-0.008,0.17-0.017,0.711-0.017,0.777c0,0.038-0.006,0.074-0.006,0.11c0,0.134-0.001,0.265-0.007,0.397
		c-0.04,1.917-0.081,3.831-0.119,5.731c-0.013,0.605-0.025,1.206-0.038,1.809c-0.079,4.017-0.161,7.948-0.238,11.66
		c-0.004,0.077-0.004,0.231-0.004,0.231c-0.011,0.452-0.036,1.672-0.044,1.829c-0.008,0.615-0.021,1.22-0.035,1.82
		c0,0-0.02,0.842-0.025,1.257C115.838,143.751,119.677,143.545,122.837,141.499z"/>
	<path fill="#C74E28" d="M82.157,37.301c-0.021,0.106-0.04,0.212-0.059,0.317c-0.013,0.084-0.031,0.169-0.045,0.253
		c-0.05,0.32-0.078,0.644-0.101,0.968c-0.026,0.398-0.041,0.801-0.026,1.207c0.012,0.356,0.021,0.725,0.026,1.107
		c0.001,0.242,0.005,0.5,0.008,0.75c0.004,0.281,0.008,0.552,0.01,0.84c0,0.01,0,0.016,0,0.024c0.016,0.939,0.042,1.914,0.112,2.896
		c0.023,0.347,0.058,0.693,0.092,1.039c-0.066,0.107-0.016,0.576,0.084,0.664c0.002,0.018,0.006,0.033,0.009,0.05
		c0.066,0.487,0.149,0.968,0.251,1.447c-0.021,0.052-0.032,0.109-0.036,0.176c-0.011,0.177,0.077,0.322,0.188,0.458
		c0.104,0.391,0.219,0.775,0.354,1.154c0.028,0.078,0.063,0.147,0.093,0.223c0.224,0.595,0.488,1.169,0.814,1.713
		c0.22,0.365,0.47,0.714,0.74,1.051c0.042,0.053,0.077,0.108,0.122,0.156c0.738,0.877,1.68,1.641,2.865,2.249
		c1.635,0.837,3.738,1.378,6.454,1.496c0.424,0.02,0.86,0.029,1.313,0.027c0.187-0.003,0.362-0.015,0.545-0.023
		c1.047-0.044,2.018-0.199,2.91-0.454c0.212-0.06,0.418-0.126,0.616-0.196c0.292-0.099,0.572-0.204,0.843-0.323
		c0.098-0.01,0.198-0.026,0.305-0.044c-0.012-0.027-0.016-0.058-0.022-0.085c0.519-0.244,0.998-0.54,1.46-0.854
		c0.297-0.202,0.584-0.417,0.862-0.647c0.512-0.429,0.995-0.89,1.429-1.396c0.079-0.092,0.148-0.19,0.224-0.288
		c0.733-0.897,1.353-1.898,1.869-2.965c0.113-0.227,0.227-0.455,0.325-0.689c0.022-0.047,0.041-0.103,0.062-0.153
		c0.232-0.547,0.443-1.108,0.627-1.681c0.276-0.851,0.496-1.72,0.678-2.591c0.055-0.285,0.103-0.571,0.153-0.855
		c0.165-0.982,0.28-1.96,0.345-2.914c0.019-0.215,0.021-0.431,0.033-0.642c0.047-1.16,0.034-2.273-0.048-3.294
		c-0.008-0.08-0.017-0.16-0.022-0.241c-0.003-0.054-0.011-0.111-0.018-0.166c-0.026-0.24-0.052-0.48-0.083-0.716
		c-0.009-0.071-0.029-0.142-0.036-0.209c-0.05-0.321-0.103-0.639-0.167-0.955c-0.029-0.149-0.064-0.297-0.099-0.442
		c0-0.005,0-0.005,0-0.005c-0.14-0.598-0.31-1.186-0.512-1.753c-0.047-0.138-0.095-0.274-0.148-0.412
		c-0.159-0.414-0.337-0.819-0.527-1.213c-0.225-0.449-0.473-0.882-0.741-1.297c-0.026-0.04-0.05-0.083-0.075-0.125
		c-0.631-0.944-1.38-1.779-2.255-2.462c-0.09-0.071-0.182-0.142-0.276-0.207c-0.148-0.108-0.305-0.208-0.462-0.308
		c-0.684-0.433-1.431-0.783-2.25-1.027c-0.168-0.049-0.337-0.096-0.511-0.135c-0.506-0.122-1.035-0.187-1.591-0.227
		c-0.374-0.124-0.724-0.126-1.02-0.042c-0.034,0.002-0.065,0.002-0.103,0.002c-1.178,0.026-2.334,0.169-3.454,0.417
		c-0.166,0.037-0.331,0.076-0.496,0.116c-0.583,0.147-1.151,0.324-1.707,0.526c-0.639,0.233-1.259,0.497-1.856,0.792
		c-0.149,0.077-0.3,0.155-0.446,0.234c-0.458,0.245-0.899,0.511-1.323,0.788c-0.451,0.298-0.883,0.612-1.296,0.947
		c-0.102,0.08-0.196,0.167-0.295,0.25c-0.033,0.028-0.066,0.054-0.098,0.08c-0.606,0.527-1.17,1.089-1.681,1.689
		c-0.013,0.017-0.027,0.035-0.043,0.055c-0.096,0.116-0.193,0.233-0.286,0.35c-0.431,0.545-0.815,1.113-1.158,1.706
		c-0.22,0.382-0.42,0.776-0.601,1.176c-0.278,0.622-0.509,1.26-0.685,1.919c-0.014,0.064-0.028,0.126-0.044,0.188
		c-0.034,0.148-0.072,0.294-0.104,0.44C82.174,37.205,81.999,37.289,82.157,37.301z"/>
</g>
</svg>
